<?xml version="1.0" encoding="utf-8"?>
<!-- Generator: Adobe Illustrator 18.1.0, SVG Export Plug-In . SVG Version: 6.00 Build 0)  -->
<svg version="1.1" xmlns="http://www.w3.org/2000/svg" xmlns:xlink="http://www.w3.org/1999/xlink" x="0px" y="0px"
	 viewBox="107.5 488.7 289.8 72.7" enable-background="new 107.5 488.7 289.8 72.7" xml:space="preserve">
<g id="Layer_1">
	<g id="_x23_010202ff" display="none">
		<path display="inline" fill="#010202" d="M121.3,502.2c-0.5-8.5,6.3-15.9,14.6-17C136.1,493.5,130,502,121.3,502.2z"/>
		<path display="inline" fill="none" stroke="#010202" stroke-miterlimit="10" d="M94.6,515.1c2.2-6.7,8.6-11.9,15.7-12.1
			c4.2,0.1,7.9,2.6,12,3.1c4-0.9,7.7-3.3,12-3.2c5.5-0.4,11,2.4,14,7c-5.6,3.9-9,11.1-6.9,17.8c1,4.7,4.7,8.2,8.7,10.6
			c-2.3,6.7-5.8,13.4-11.7,17.7c-5.2,3.3-10.4-2-15.7-1.7c-5-0.1-9.8,4.9-14.8,2c-4.9-3.2-8-8.6-10.6-13.7
			C93.5,534.2,91.3,524.1,94.6,515.1z"/>
	</g>
	<path d="M160.2,497.3c1.4-0.7,3.2-0.7,4.6,0c1.7,0.8,2.9,2.5,3.1,4.4c0.2,1.7-0.5,3.5-1.8,4.6c-1.5,1.3-3.8,1.7-5.7,0.9
		c-1.8-0.7-3.1-2.5-3.2-4.3C156.9,500.6,158.1,498.3,160.2,497.3z"/>
	<path d="M154,521.8c1.3-5,2.3-7.8,3.5-14.1c1.6,0.5,3.8,1,5.4,1.5c-0.1,0.7-0.4,2-0.5,2.7c3-1.4,4.7-2.8,7.4-4.1
		c0.5,1.1,1.1,2.2,1.6,3.3c-1.8,0.9-3.6,1.9-5.5,2.7c1.8-0.1,3.6-0.1,5.4-0.1c0,1.2,0,2.4,0,3.7c-3.1,0-6.1,0-10.1,0.1
		c-0.4,2.2-1.6,5-1.5,6.8c0.1,1.9,6.9,8.5,7,10c0.1,1.5-4.1,9.2-6.7,12c-1.4-0.2-3.3-3.5-3.3-3.5s5.6-6.5,4-9
		C159.3,531.2,152.7,526.8,154,521.8z"/>
</g>
<g id="Isolation_Mode">
	<path fill="#010202" d="M182.7,505.8c2.9,0,5.8,0,8.7-0.1c2.5,9.7,4.5,19.6,6.8,29.4c2.4-9.8,4.7-19.6,7.2-29.4c2.8,0,5.6,0,8.3,0
		c2.3,9.8,4.8,19.6,7.2,29.4c2.2-9.8,4.4-19.6,6.7-29.4c2.9,0,5.8,0,8.8,0c-3.7,13.6-7.3,27.3-11.2,40.9c-2.8,0-5.6,0-8.4-0.2
		c-2.3-9.3-4.8-18.5-7.2-27.7c-2.5,9.3-4.9,18.6-7.4,28c-2.8,0-5.6,0.1-8.4-0.2C190.1,532.8,186.3,519.3,182.7,505.8z"/>
	<path fill="#010202" d="M249.6,505.7c3.2,0,6.4,0,9.7,0c4.4,13.6,8.5,27.2,12.9,40.8c-3,0-5.9,0-8.9,0c-1-3.4-1.9-6.9-2.8-10.3
		c-4.2,0-8.3,0-12.5,0c-1,3.4-2,6.8-2.9,10.3c-2.8,0-5.5,0-8.3-0.1C241.1,532.9,245.3,519.3,249.6,505.7 M249.7,530c3,0,6,0,9,0
		c-1.5-5.5-3-10.9-4.5-16.4C252.8,519.1,251.1,524.5,249.7,530z"/>
	<path fill="#010202" d="M272.2,505.7c10.5,0.1,21.1,0,31.6,0c0,2.4,0,4.9,0,7.3c-3.9,0-7.8,0-11.8,0c0,11.2,0,22.3,0,33.5
		c-2.8,0-5.6,0-8.3-0.2c0-11.1,0-22.2,0-33.3c-3.9,0-7.9,0-11.8,0C272,510.6,272,508.2,272.2,505.7z"/>
	<path fill="#010202" d="M312.1,512.2c4.8-7.7,16.2-9,23.6-4.3c4.1,2.6,6,7.4,6.2,12.1c-2.6,0-5.3,0-8,0c-0.4-1.9-0.5-4.1-2.1-5.5
		c-3.9-4-11.9-2.6-13.4,3.1c-1.2,5.6-1.2,11.6,0,17.2c1.6,5.6,9.6,6.8,13.6,3.1c1.5-1.4,1.7-3.6,2-5.5c2.7,0,5.3,0,8,0
		c-0.2,4.7-2,9.6-6.2,12.1c-6.1,3.6-14.5,3.6-20.2-0.7c-4.1-3.1-5.9-8.4-6.1-13.4C309.2,524.4,308.7,517.7,312.1,512.2z"/>
	<path fill="#010202" d="M375.2,505.7c2.7,0,5.4,0,8.1,0c0,13.6,0,27.2,0,40.8c-2.8,0-5.5,0-8.3-0.1c0-5.7,0-11.5,0-17.2
		c-5.4,0-10.8,0-16.2,0c0,5.7,0,11.4,0,17.1c-2.8,0.2-5.6,0.2-8.3,0.2c0-13.6,0-27.2,0-40.8c2.8,0,5.5,0,8.3,0c0,5.5,0,11,0,16.5
		c5.4,0,10.8,0,16.2,0C375.1,516.7,374.8,511.2,375.2,505.7z"/>
	<g display="none">
		<path display="inline" stroke="#000000" stroke-width="1.5" stroke-linejoin="round" stroke-miterlimit="10" d="M124.7,527.1
			c3.5,1.1,8.1,1,11.3-0.1c-3.4,0.3-10.1,0-10.4,0S125.2,527,124.7,527.1z"/>
		<path display="inline" stroke="#000000" stroke-width="1.5" stroke-linejoin="round" stroke-miterlimit="10" d="M95.2,532
			c1.3,2.6,3.8,4.2,6.2,5.8c0.2,1.2,0,4.4,0.3,5.5c0.8,3.7,1.7,5.9,5.1,7.3c3.1,1.6,4.1,0.7,7.1-1.4c1,0.8,3.2,2.2,5.4,2.4
			s5.1-0.9,6.5-1.9s3.5-3.1,3.8-4.5c0.4-1.4-0.5-3.5-1.7-4.8c-0.7-0.6-1.3-1.3-2-2c-0.5-0.6-0.9-1.1-1.4-1.7
			c1.9-2.5,7.1-5.1,12.2-5.8c-0.9-0.2-1-0.2-1.5-0.3c-4.1-0.5-8.5,1.8-9.1,2.3s-2.1,1.6-2.5,2c-0.3-0.7-1-1.9-0.9-2.2s0.2-0.7,0.3-1
			c-0.2-0.1-0.6,0.3-0.8,0.4c-0.1,0.2-0.4,0.7-0.3,1.4c0,0.7,1.5,4.2,3.1,6.2c0.6,0.7,1.6,1.5,1.9,2.1c0.4,0.5,1.2,2.1,1.1,2.8
			c-0.1,0.7-1.9,2.9-3.7,4.1s-4.1,1.4-4.9,1.3s-2.8-0.6-4.2-1.9c1.4-1.5,2.6-4,2.7-4.6c0.1-0.5,0.1-1.4,0.1-1.7c-0.9,2-2,4-4,5.1
			c-2,0.7-2.9,2.6-5.1,2.1c-3.6-0.7-3.7-3.1-5.2-6.5c-0.5-1.1-0.2-3-0.4-4.2c1.7,0.2,3.6,0.2,5-0.5c0.5-0.2,0.7-0.5,0.9-0.9
			c-1.3-0.2-2.7,0.2-4-0.3c-3-0.9-5.8-2.8-7.5-5.4c-1.8-2.9-1-6.5,0.7-9.3c1-1.8,2.8-3.2,4.7-4c1.1,0.9,2.1,2.4,3.6,2
			c-0.8-1.2-1.9-2.2-2.3-3.6c-0.7-2.4,0.2-5.2,2.1-6.8c1.1-1.1,0.9-1.9,4.7-1.9c3.7,0,2.3,0.3,3,1.2c0.7,0.8,0.4,2.6,0.1,3.9
			c0.1,0.1,0.3,0.3,0.4,0.3c1.2-0.7,5.2-0.9,6.2-0.7s1.7,0.7,2.1,1c0.4,0.3,0.6,0.8,0.8,1c0.1,0.5,0.5,1.5,0.3,2.2s-0.8,2.3-1.8,3.6
			c-1.4,1.4-4.1,1.2-5.2,2.5c-1.1,1.3-0.7,3.6,0.1,4.4s2,1.2,3.1,1.3c0.1-0.1-0.6-0.7-1-1.1c-0.4-0.4-0.8-1-1-1.3
			c-0.1-0.3-0.1-0.9,0-1.2c0.1-0.3,0.3-1,0.7-1.4c0.3-0.4,4.4-1.5,5.8-3.4c2.5,2.1,7.2,3,10.7,2.5c0.6-0.1,0.8-0.2,1.1-0.4
			c-4.1,0-8-1.4-11-3.9c0-0.3,0.1-0.8,0.1-1.1c0-0.7,0.2-1.9,0-2.8c-0.2-0.9-1.1-2.1-2.3-3c-1.6-1.1-5.4-1.7-7.3-0.8
			c0.4-2.8-1.5-4-2.7-4.7s-0.4-0.3-2.2-0.3c-1.8,0-2.7-0.2-3.9,0.4c-3.8,1.9-5.8,6.4-5.4,10.5c-1.9,0.9-3.9,1.8-5.2,3.6
			C94.1,523.3,93.1,528.2,95.2,532z"/>
	</g>
	<g>
		<path fill="#2B2B2B" d="M143.6,526.7c2.5,1.3,4.9,1.5,8.2-0.4C148.8,527,146.9,527,143.6,526.7z"/>
		<path fill="#2B2B2B" d="M119.7,526.4c1,2.5,2.8,4.4,4.9,5.9c0.2,0.1,0.3,0.3,0.3,0.6c0.1,1.2,0.1,2.8,0.3,3.8
			c0.5,3.5,3,6.2,6.2,7.8c2.7,1.6,6.3,2.1,9.2,0.6c0.3-0.1,0.6-0.1,0.9,0.1c0.9,0.7,2,1.5,3.1,1.7c2,0.7,5-0.6,5.7-1.4
			s1.3-2.3,1.5-3.4c0.2-1.1-0.3-3.3-1.4-4.7c0,0-0.1-0.1-0.1-0.1c-0.6-0.6-1-1.4-1.5-2.1c-0.3-0.4-0.6-0.7-0.9-1.1
			c-0.2-0.2-0.4-1-0.3-1.3c1-2.3,2.1-3.1,4.7-4.2c-2.9,0.2-4.2,0.9-5.1,2.1c-0.4,0.5-0.7,0.6-1,0.4c-0.3-0.1-0.7-0.8-0.7-1.1
			c0-0.3,0-0.8,0.4-1.1c-0.2-0.1-0.9,0-1.1,0.3c-0.2,0.2-0.5,0.6-0.5,1.2c0,0.6,1.6,4.2,2.9,6.2c0,0,0,0,0.1,0.1
			c0.5,0.7,1.1,1.3,1.6,1.9c0.1,0.1,0.1,0.1,0.1,0.2c0.4,0.9,0.8,1.9,0.8,2.6c0,0.7-1,2.2-1.4,2.6c-0.4,0.4-2.9,1.4-4.2,0.9
			c-0.3-0.1-0.8-0.4-1.1-0.7c-0.3-0.3-0.4-0.5-0.6-0.7c1.4-0.9,1.9-1.6,2.4-2.7c0.6-1,0.8-3.2,0.7-3.5c-1.2,1.8-2.4,3.9-4.4,4.8
			c0,0-0.1,0-0.2,0.1c-1.9,0.6-3.9,1.4-6,0.9c-3.4-0.8-6.5-3.3-7.7-6.6c-0.3-0.8-0.4-1.6-0.5-2.4c-0.1-0.5,0.4-0.9,0.9-0.9
			c1.3,0.1,2.7,0.1,3.8-0.3c0.4-0.2,0.7-0.5,0.9-0.8c-1.2-0.3-2.6,0-3.8-0.5c-2.8-1.1-5.4-3-6.8-5.6c-1.5-2.8-0.6-6.3,1.2-8.8
			c1-1.5,2.5-2.6,4.2-3.3c0.3-0.1,0.6,0,0.8,0.2c0.1,0.1,0.7,1.8,3.2,2.9c-1.1-1.6-1.3-1.8-1.7-3.1c-0.2-0.4-0.3-1.1-0.4-1.7
			c-0.3-2.4,0.5-4.9,2.4-6.4c1.1-1,2.6-1.3,4-1.5c0.4,0.1,0.6,0,1.2,0.1c0.6,0.2,1.4,0.3,2.1,0.7c0.6,0.3,2.2,1,2.4,2.2
			c0.2,0.7,0.8,2.1,0.2,2.7c-0.5,0.8-0.7,1.1-0.9,2.3c0.8-0.9,0.9-1.1,1.7-1.6c1-0.4,2.2-0.5,2.8-0.3c0.9,0.3,1.6,0.7,1.9,1.1
			c0.3,0.3,0.5,0.8,0.7,1c0.1,0.5,0.3,1.5,0.1,2.1c-0.2,0.6-0.9,2.1-1.9,3.2c0,0.1-0.1,0.1-0.1,0.1c-1.5,1.2-3.9,0.9-5,2
			c-1.1,1.1-1.2,2.8-0.4,3.9c0.8,1.1,2.1,1.5,3.1,1.7c0.1-0.1-0.4-0.7-0.8-1c-0.3-0.4-0.7-0.9-0.8-1.2c-0.1-0.3-0.1-0.8,0-1.1
			c0.1-0.3,0.5-0.8,0.8-1.1c0.2-0.3,0.6-0.5,1.1-0.7c0.3-0.1,0.7,0,0.9,0.3c0.1,0.2,1.6,1.6,1.7,1.8c0.6,0.7,2.1,2,4.3,2.4
			c-3.8-2.7-4.4-4.5-4.4-4.5c-0.2-0.4,0-0.8,0.3-1c2.1-1.2,2.9-2.7,3.1-3.5c0,0,0-0.1,0-0.1c0.1-0.7,0.2-2.1,0.1-2.9
			c-0.1-0.8-0.5-2.3-1.6-3.2c-1.1-0.9-2.6-1.3-4.1-1.1c-0.5,0.1-0.4-0.3-0.4-1c-0.2-2.1-1.8-3.6-2.8-4.2c-1.1-0.7-2.8-1.3-4.1-1.7
			c0,0-0.1,0-0.1,0c-1.3-0.2-3.4,0-4.5,0.5c-3.6,1.5-5.8,5-5.9,8.8c0,0.3-0.2,0.6-0.5,0.7c-1.8,0.7-3.8,1.6-5,3
			C118.2,517.5,117.9,522.7,119.7,526.4z"/>
	</g>
</g>
</svg>
